<svg version="1.1" xmlns="http://www.w3.org/2000/svg" xmlns:xlink="http://www.w3.org/1999/xlink" width="21" height="138" viewBox="0 0 21 138">
<path id="arrow-small" d="M19.980,110.002 C18.645,112.810 16.219,114.741 13.452,115.553 C13.452,115.553 13.726,138.002 13.726,138.002 L6.759,137.995 C6.759,137.995 7.450,115.523 7.450,115.523 C6.959,115.373 6.472,115.199 5.995,114.972 C0.759,112.485 -1.467,106.227 1.022,100.994 C2.441,98.010 5.088,96.009 8.071,95.298 C8.071,95.298 11.000,0.000 11.000,0.000 L12.041,0.063 C12.041,0.063 13.205,95.369 13.205,95.369 C13.814,95.532 14.417,95.743 15.007,96.024 C20.242,98.511 22.469,104.769 19.980,110.002 z" fill="#060606" />
</svg>
