<svg version="1.1" xmlns="http://www.w3.org/2000/svg" xmlns:xlink="http://www.w3.org/1999/xlink" width="56" height="451" viewBox="0 0 56 451">
<g id="arrow-big">
<path id="Shape-1" d="M38.457,450.173 L27.847,0.338 L17.433,450.144 L38.457,450.173 z" fill="#191919" />
<path id="Ellipse-1" d="M3.201,335.898 C9.721,322.181 26.127,316.347 39.844,322.868 C53.561,329.388 59.395,345.794 52.874,359.511 C46.353,373.228 29.948,379.061 16.231,372.541 C2.514,366.020 -3.320,349.615 3.201,335.898 z" fill="#181818" />
<path id="Ellipse-1" d="M18.672,343.174 C21.043,338.186 27.009,336.065 31.997,338.436 C36.985,340.807 39.106,346.773 36.735,351.761 C34.364,356.749 28.398,358.870 23.410,356.499 C18.422,354.128 16.301,348.162 18.672,343.174 z" fill="#C6C6C6" />
</g>
</svg>
