<svg xmlns="http://www.w3.org/2000/svg" xmlns:xlink="http://www.w3.org/1999/xlink" version="1.1" x="0px" y="0px" viewBox="0 0 100 125" enable-background="new 0 0 100 100" xml:space="preserve"><path d="M30,52h35.2l-6.6,6.6c-0.8,0.8-0.8,2,0,2.8C59,61.8,59.5,62,60,62s1-0.2,1.4-0.6l10-10c0.1-0.1,0.2-0.2,0.3-0.3  c0,0,0.1-0.1,0.1-0.2c0-0.1,0.1-0.1,0.1-0.2c0-0.1,0-0.1,0.1-0.2c0-0.1,0-0.1,0.1-0.2c0.1-0.3,0.1-0.5,0-0.8c0-0.1,0-0.1-0.1-0.2  c0-0.1,0-0.1-0.1-0.2c0-0.1-0.1-0.1-0.1-0.2c0-0.1-0.1-0.1-0.1-0.2c-0.1-0.1-0.2-0.2-0.3-0.3l-10-10c-0.8-0.8-2-0.8-2.8,0  c-0.8,0.8-0.8,2,0,2.8l6.6,6.6H30c-1.1,0-2,0.9-2,2S28.9,52,30,52z"/><text x="0" y="115" fill="#000000" font-size="5px" font-weight="bold" font-family="'Helvetica Neue', Helvetica, Arial-Unicode, Arial, Sans-serif">Created by André Luiz Gollo</text><text x="0" y="120" fill="#000000" font-size="5px" font-weight="bold" font-family="'Helvetica Neue', Helvetica, Arial-Unicode, Arial, Sans-serif">from the Noun Project</text></svg>