<svg xmlns="http://www.w3.org/2000/svg" xmlns:xlink="http://www.w3.org/1999/xlink" version="1.1" x="0px" y="0px" viewBox="0 0 100 125" enable-background="new 0 0 100 100" xml:space="preserve"><g><path fill="#000000" d="M51.66,8.917h-4.25C34.194,9.975,23.916,21.043,23.916,34.342v31.325c0,14.127,11.492,25.62,25.618,25.62   c14.129,0,25.623-11.493,25.623-25.62V34.341C75.156,21.051,64.879,9.983,51.66,8.917z M70.905,65.667   c0,11.785-9.588,21.369-21.372,21.369c-11.781,0-21.368-9.584-21.368-21.369V34.341c0-11.783,9.586-21.369,21.368-21.369   c11.784,0,21.372,9.586,21.372,21.369V65.667z"/><path fill="#000000" d="M49.535,30.65c-1.903,0-3.445,1.542-3.445,3.446v8.873c0,1.903,1.542,3.446,3.445,3.446   c1.902,0,3.445-1.543,3.445-3.446v-8.873C52.98,32.193,51.438,30.65,49.535,30.65z"/></g><text x="0" y="115" fill="#000000" font-size="5px" font-weight="bold" font-family="'Helvetica Neue', Helvetica, Arial-Unicode, Arial, Sans-serif">Created by João Proença</text><text x="0" y="120" fill="#000000" font-size="5px" font-weight="bold" font-family="'Helvetica Neue', Helvetica, Arial-Unicode, Arial, Sans-serif">from the Noun Project</text></svg>