<?xml version="1.0" encoding="utf-8"?>
<!-- Generator: Adobe Illustrator 19.0.0, SVG Export Plug-In . SVG Version: 6.00 Build 0)  -->
<svg version="1.1" id="Layer_1" xmlns="http://www.w3.org/2000/svg" xmlns:xlink="http://www.w3.org/1999/xlink" x="0px" y="0px"
	 viewBox="-556 1596 310 310" style="enable-background:new -556 1596 310 310;" xml:space="preserve">
<g>
	<path d="M-400.8,1623.9h-0.3c-97.2,0-144.3,21.8-144.3,66.4c0,0-0.3,7.9-0.3,8.2c0,23.7,3.4,31.9,41.8,31.9
		c39,0,42.7-5.4,43.5-30.5c0,0,0-3.4,0-3.7v-4.2c0-11.9,7.1-18.9,21.8-21.2l2.5-0.3c7.3-0.8,12.1-1.4,35.3-1.4
		c23.2,0,28,0.6,35.3,1.4l2.5,0.3c14.7,2.3,21.8,9.3,21.8,21.2v4.2v3.4c0.6,25.1,4.5,30.5,43.5,30.5c37,0,41.2-6.5,41.8-32.2v-5.9
		v-2.3C-256.4,1645.6-303.6,1623.9-400.8,1623.9z"/>
	<g>
		<g>
			<path d="M-392.3,1705.2l7.9,0.8c4.8,0.6,9.3,5.1,9.9,9.9l1.1,8.8c0.6,5.6,0.6,14.7,0,20.1l-0.8,7.9c-0.6,4.8-5.1,9.3-9.9,10.2
				l-6.5,0.8c-5.6,0.6-14.4,0.6-20.1,0l-6.5-0.8c-4.8-0.6-9.3-5.1-9.9-10.2l-1.1-9.3c-0.6-5.6-0.6-14.7,0-20.1l0.8-7.3
				c0.6-4.8,5.1-9.6,10.2-10.2l5.4-0.6C-406.7,1704.4-397.7,1704.4-392.3,1705.2z"/>
		</g>
	</g>
	<path d="M-298,1737.4c-39.5,0-42.7,5.4-43.5,30.5c0,5.4-0.3,2-0.3,7.9c0,12.7-8.2,19.2-21.8,21.2c-9,1.1-12.1,1.7-37.6,1.7
		c-25.4,0-28.8-0.8-37.6-1.7c-13.6-2.3-21.8-8.5-21.8-21.2c0-5.6,0-2.5-0.3-7.9c-0.3-25.4-3.7-30.5-43.2-30.5
		c-37.3,0-41,7.1-41.8,31.9c0,8.5,0.3,1.7,0.3,7.9c0.6,39.5,36.2,66.4,144.3,66.4l0,0l0,0c0,0,0,0,0.3,0c0,0,0,0,0.3,0l0,0l0,0
		c5.4,0,10.7,0,15.8-0.3l0,0c15.5,0,24.6,3.1,28.5,4.8l54.8,27.7c11,5.6,16.4,0.8,11.9-10.7l-7.1-17.8c-5.4-13,10.5-23.2,10.5-23.2
		l0,0c21.2-11.6,29.9-28,30.2-47.2c0-6.2,0.3,0.3,0.3-7.9C-256.7,1744.5-260.7,1737.4-298,1737.4z"/>
</g>
</svg>
