<?xml version="1.0" standalone="no"?>
<!DOCTYPE svg PUBLIC "-//W3C//DTD SVG 20010904//EN"
 "http://www.w3.org/TR/2001/REC-SVG-20010904/DTD/svg10.dtd">
<svg version="1.0" xmlns="http://www.w3.org/2000/svg"
 width="311.000000pt" height="311.000000pt" viewBox="0 0 311.000000 311.000000"
 preserveAspectRatio="xMidYMid meet">
<metadata>
Created by potrace 1.11, written by Peter Selinger 2001-2013
</metadata>
<g transform="translate(0.000000,311.000000) scale(0.100000,-0.100000)"
fill="#000000" stroke="none">
<path d="M1437 2834 c-1 -1 -67 -5 -147 -8 -80 -4 -157 -8 -170 -10 -14 -3
-52 -7 -85 -10 -33 -4 -71 -8 -85 -10 -14 -2 -47 -8 -75 -12 -27 -4 -54 -8
-60 -10 -5 -1 -32 -7 -60 -13 -342 -78 -551 -225 -617 -434 -24 -77 -33 -318
-15 -391 15 -57 54 -108 101 -130 56 -26 177 -41 326 -40 217 2 301 19 353 70
45 45 58 95 63 239 5 132 13 167 46 206 66 76 164 93 533 93 425 1 511 -15
578 -111 26 -37 29 -49 33 -149 6 -180 16 -229 56 -271 49 -52 180 -76 394
-74 282 3 368 42 394 181 17 89 14 277 -5 350 -56 217 -247 364 -583 449 -123
32 -185 42 -322 56 -36 4 -76 8 -90 11 -53 8 -555 24 -563 18z"/>
<path d="M1443 2019 c-69 -8 -115 -31 -133 -64 -37 -69 -33 -402 6 -462 30
-47 107 -66 263 -65 180 2 234 32 251 138 16 95 14 235 -6 349 -5 33 -29 66
-59 83 -42 22 -217 33 -322 21z"/>
<path d="M364 1690 c-201 -27 -247 -85 -249 -315 -3 -242 47 -359 205 -487 82
-65 263 -146 389 -173 105 -23 164 -34 204 -40 27 -3 57 -8 66 -10 10 -2 54
-6 97 -10 43 -4 90 -9 104 -11 14 -3 167 -7 340 -9 230 -2 334 -7 386 -18 54
-12 146 -53 382 -171 311 -156 360 -174 390 -144 22 22 12 83 -34 198 -52 130
-58 181 -26 232 28 44 63 75 149 132 127 83 209 199 235 333 14 75 13 267 -2
324 -38 142 -140 181 -460 174 -216 -4 -296 -23 -337 -82 -35 -48 -41 -81 -49
-228 -3 -60 -10 -125 -15 -143 -28 -88 -108 -133 -266 -148 -98 -10 -535 -9
-628 0 -139 15 -224 57 -258 128 -10 21 -18 77 -21 158 -7 142 -17 192 -43
229 -22 30 -92 67 -143 76 -58 10 -351 13 -416 5z"/>
</g>
</svg>
