<svg version="1" xmlns="http://www.w3.org/2000/svg" width="40" height="40" viewBox="196 376 40 40"><path fill="#67C609" d="M209.5 402.5c0 .7.4 1.1 1.1 1.1h1.1v3.8c0 .9.8 1.6 1.6 1.6s1.6-.8 1.6-1.6v-3.8h2.2v3.8c0 .9.8 1.6 1.6 1.6s1.6-.8 1.6-1.6v-3.8h1.1c.7 0 1.1-.4 1.1-1.1v-10.8h-13v10.8zm-2.7-10.9c-.9 0-1.6.8-1.6 1.6v7.6c0 .9.8 1.6 1.6 1.6s1.6-.8 1.6-1.6v-7.6c0-.8-.8-1.6-1.6-1.6zm18.4 0c-.9 0-1.6.8-1.6 1.6v7.6c0 .9.8 1.6 1.6 1.6s1.6-.8 1.6-1.6v-7.6c0-.8-.7-1.6-1.6-1.6zm-5.4-6.2l1.4-1.4c.2-.2.2-.5 0-.8-.2-.2-.5-.2-.8 0l-1.6 1.6c-.8-.5-1.7-.8-2.8-.8s-2.1.2-2.9.7l-1.5-1.6c-.2-.1-.7-.1-.9 0-.1.2-.1.7 0 .9l1.4 1.4c-1.5 1.2-2.6 3-2.6 5.2h13c0-2.2-1.1-4.2-2.7-5.2zm-6 3h-1.1v-1.1h1.1v1.1zm5.5 0h-1.1v-1.1h1.1v1.1z"/></svg>