<svg version="1" xmlns="http://www.w3.org/2000/svg" width="40" height="40" viewBox="-24 155 40 40"><title>Layer 1</title><path fill="#849FA8" d="M2.8 175.8c0 3.8 3.3 5 3.4 5.1 0 .1-.5 1.8-1.7 3.6-1 1.5-2.1 3-3.8 3.1-1.7 0-2.2-1-4.1-1-1.9 0-2.5 1-4.1 1-1.6.1-2.9-1.6-3.9-3.2-2.1-3.1-3.8-8.8-1.6-12.6 1.1-1.9 3.1-3.1 5.2-3.1 1.6 0 3.1 1.1 4.1 1.1 1 0 2.8-1.3 4.8-1.1.8 0 3.1.3 4.6 2.5-.3-.1-2.9 1.4-2.9 4.6m-3.1-9.3c.9-1.1 1.5-2.5 1.3-4-1.3.1-2.8.8-3.7 1.9-.8.9-1.5 2.4-1.3 3.9 1.4.1 2.8-.8 3.7-1.8"/></svg>