<svg xmlns="http://www.w3.org/2000/svg" width="56" height="451" viewBox="0 0 56 451"><path d="M38.457 450.173L27.847.338 17.433 450.144l21.024.03z" fill="#191919"/><path d="M3.2 335.898c6.52-13.717 22.927-19.55 36.644-13.03 13.717 6.52 19.55 22.926 13.03 36.643-6.52 13.718-22.926 19.55-36.643 13.03C2.515 366.02-3.32 349.616 3.2 335.9z" fill="#181818"/><path d="M18.672 343.174c2.37-4.988 8.337-7.11 13.325-4.738 4.988 2.37 7.11 8.337 4.738 13.325-2.37 4.99-8.337 7.11-13.325 4.74-4.988-2.372-7.11-8.338-4.738-13.326z" fill="#C6C6C6"/></svg>