<svg version="1" xmlns="http://www.w3.org/2000/svg" width="170" height="60" viewBox="-24 100 170 60"><g fill="#FFF"><path d="M91.9 142.6l-1.3 1.2c-.3.2-.6.3-.9.5-.9.4-1.8.5-2.6.5s-2.2-.1-3.5-1c-1.9-1.3-2.7-3.6-2.7-5.6 0-4.1 3.3-6.1 6.1-6.1 1 0 1.9.2 2.7.7 1.3.9 1.7 2 1.9 2.6l-6.2 2.5-2 .2c.7 3.4 2.9 5.3 5.4 5.3 1.3 0 2.2-.4 3.1-.8 0-.1.1-.2 0 0zm-3.8-6.7c.5-.2.8-.3.8-.7 0-1.1-1.2-2.3-2.6-2.3-1.1 0-3 .8-3 3.7 0 .4.1.9.1 1.4l4.7-2.1z"/><path d="M78.9 142.4c0 1 .2 1.2 1.1 1.3.5.1.9.1 1.4.1l-1 .6h-4.7c.6-.8.7-.9.7-1.4v-16.3h-2.1l2-1h3.8c-.8.5-1.1.8-1.2 1.7v15z"/><path d="M71.7 133.3c.6.5 1.9 1.6 1.9 3.6s-1.1 2.9-2.2 3.8c-.3.3-.7.7-.7 1.3 0 .6.4.9.7 1.1l1 .7c1.2 1 2.2 1.9 2.2 3.7 0 2.5-2.4 5-7 5-3.8 0-5.7-1.8-5.7-3.8 0-1 .5-2.3 2-3.2 1.6-1 3.9-1.1 5.1-1.2-.4-.5-.8-1-.8-1.8 0-.4.1-.7.3-1-.3 0-.6.1-.8.1-2.8 0-4.4-2.1-4.4-4.2 0-1.2.6-2.6 1.7-3.5 1.5-1.2 3.3-1.5 4.7-1.5H75l-1.7 1-1.6-.1zm-1.9 11.8h-.6c-.2 0-1.7.1-2.8.4-.6.2-2.3.8-2.3 2.7 0 1.9 1.8 3.2 4.7 3.2 2.5 0 3.9-1.2 3.9-2.9 0-1.3-.9-2-2.9-3.4zm.8-5.1c.6-.6.7-1.5.7-1.9 0-1.9-1.1-4.9-3.3-4.9-.7 0-1.4.3-1.9.9-.4.6-.6 1.3-.6 2 0 1.8 1 4.7 3.3 4.7.6 0 1.3-.4 1.8-.8zM55.3 144.7c-4.2 0-6.5-3.3-6.5-6.2 0-3.5 2.8-6.4 6.9-6.4 3.9 0 6.3 3 6.3 6.2 0 3.1-2.4 6.4-6.7 6.4zm3.3-2.2c.6-.8.8-1.9.8-2.9 0-2.3-1.1-6.8-4.4-6.8-.9 0-1.8.3-2.4.9-1 .9-1.2 2.1-1.2 3.2 0 2.6 1.3 6.9 4.5 6.9 1 .1 2.1-.4 2.7-1.3zM41.2 144.7c-4.2 0-6.5-3.3-6.5-6.2 0-3.5 2.8-6.4 6.9-6.4 3.9 0 6.3 3 6.3 6.2 0 3.1-2.4 6.4-6.7 6.4zm3.3-2.2c.6-.8.8-1.9.8-2.9 0-2.3-1.1-6.8-4.4-6.8-.9 0-1.7.3-2.4.9-1 .9-1.2 2.1-1.2 3.2 0 2.6 1.3 6.9 4.5 6.9 1 .1 2.1-.4 2.7-1.3zM33.1 143.8l-3.5.8c-1.4.2-2.7.4-4.1.4-6.8 0-9.4-5-9.4-9 0-4.8 3.7-9.3 10-9.3 1.3 0 2.6.2 3.8.5 1.9.5 2.7 1.2 3.3 1.5l-2.1 2-.9.2.6-1c-.8-.8-2.4-2.3-5.3-2.3-3.9 0-6.9 3-6.9 7.3 0 4.7 3.4 9 8.8 9 1.6 0 2.4-.3 3.1-.6v-4l-3.7.2 2-1.1H34l-.6.6c-.2.1-.2.2-.2.4v1.2l-.1 3.2z"/><g><path d="M99.5 142.7v6.7h-1.3v-17.1h1.3v2c.9-1.3 2.5-2.3 4.3-2.3 3.3 0 5.6 2.5 5.6 6.5s-2.2 6.5-5.6 6.5c-1.7 0-3.3-.9-4.3-2.3zm8.5-4.2c0-3-1.6-5.3-4.3-5.3-1.7 0-3.4 1.4-4.1 2.5v5.5c.7 1.2 2.4 2.6 4.1 2.6 2.7 0 4.3-2.3 4.3-5.3zM111.2 144.7v-17.1h1.3v17.1h-1.3zM127.6 148.3c.3.1.8.2 1.1.2.8 0 1.4-.3 1.9-1.5l1-2.2-5.3-12.5h1.5l4.5 10.8 4.5-10.8h1.5l-6.4 15.1c-.7 1.6-1.7 2.3-3.2 2.3-.4 0-1-.1-1.3-.2l.2-1.2zM123.7 144.6c-.1-.4-.2-.8-.2-1.1 0-.3-.1-.6-.1-1-.5.7-1.1 1.2-1.9 1.7-.8.4-1.6.7-2.7.7-1.3 0-2.3-.3-3-1-.7-.6-1.1-1.5-1.1-2.6s.5-2 1.6-2.7c1-.7 2.4-1 4.1-1h3.1V136c0-.9-.3-1.6-.9-2.1-.6-.5-1.5-.8-2.6-.8-1 0-1.8.2-2.5.7-.6.5-.9 1-.9 1.7h-1.4v-.1c0-.9.4-1.8 1.3-2.5s2.1-1.1 3.6-1.1 2.6.4 3.5 1.1c.9.7 1.3 1.7 1.3 3v6.1c0 .4 0 .9.1 1.3s.1.8.3 1.2l-1.6.1zm-4.8-.9c1.1 0 2-.3 2.8-.8.8-.5 1.4-1.1 1.7-1.9v-2.4h-3.1c-1.2 0-2.2.3-3 .8-.8.5-1.2 1.2-1.2 1.9s.3 1.3.8 1.7c.5.5 1.1.7 2 .7z"/></g></g><g fill="#FFF"><path d="M16 113.5c0-2.6 2-4.3 4.4-4.3 1.6 0 2.7.8 3.4 1.7l-1.2.7c-.5-.6-1.2-1.1-2.2-1.1-1.7 0-2.9 1.3-2.9 3s1.2 3 2.9 3c.9 0 1.6-.4 2-.8v-1.3h-2.5v-1.3h4v3.1c-.8.9-2 1.5-3.4 1.5-2.5.1-4.5-1.6-4.5-4.2zM25.7 117.7v-8.4h5.7v1.3h-4.3v2.2h4.2v1.3h-4.2v2.3h4.3v1.3h-5.7zM35.5 117.7v-7.1H33v-1.3h6.5v1.3H37v7.1h-1.5zM44.6 117.7v-8.4H46v8.4h-1.4zM50.1 117.7v-7.1h-2.5v-1.3h6.5v1.3h-2.5v7.1h-1.5zM58.9 113.5c0-2.5 1.8-4.3 4.3-4.3s4.3 1.8 4.3 4.3-1.8 4.3-4.3 4.3c-2.6 0-4.3-1.8-4.3-4.3zm7 0c0-1.7-1.1-3-2.8-3-1.7 0-2.8 1.3-2.8 3s1.1 3 2.8 3c1.7 0 2.8-1.3 2.8-3zM75 117.7l-4.4-6v6h-1.5v-8.4h1.5l4.3 5.8v-5.8h1.5v8.4H75z"/></g><path fill="none" d="M-1.5 137.8l4.3-4.3-4.3 4.3-13.7-13.7 13.7 13.7-13.7 13.7 13.7-13.7 4.3 4.3z"/><linearGradient id="a" gradientUnits="userSpaceOnUse" x1="385.847" y1="-790.512" x2="367.759" y2="-801.832" gradientTransform="rotate(45 -928.474 -797.96)"><stop offset="0" stop-color="#d7e69d"/><stop offset=".446" stop-color="#94c4aa"/><stop offset="1" stop-color="#01a4b6"/></linearGradient><path fill="url(#a)" d="M2.8 133.5l-16.7-9.2c-.5-.3-.9-.3-1.3-.2l13.7 13.7 4.3-4.3z"/><linearGradient id="b" gradientUnits="userSpaceOnUse" x1="375.332" y1="-800.182" x2="398.783" y2="-794.052" gradientTransform="rotate(45 -928.474 -797.96)"><stop offset="0" stop-color="#ed277b"/><stop offset=".019" stop-color="#ee2f7c"/><stop offset=".704" stop-color="#f7bd81"/><stop offset="1" stop-color="#feeb74"/></linearGradient><path fill="url(#b)" d="M2.8 142.1l5.7-3.1c1.2-.6 1.2-1.7 0-2.3l-5.7-3.1-4.3 4.3 4.3 4.2z"/><linearGradient id="c" gradientUnits="userSpaceOnUse" x1="388.422" y1="-781.926" x2="362.991" y2="-796.888" gradientTransform="rotate(45 -928.474 -797.96)"><stop offset="0" stop-color="#89cfbd"/><stop offset=".091" stop-color="#7dbebb"/><stop offset=".54" stop-color="#457cac"/><stop offset=".852" stop-color="#1c5aa2"/><stop offset="1" stop-color="#084d9f"/></linearGradient><path fill="url(#c)" d="M-15.2 124.1c-.5.2-.8.7-.8 1.5v24.5c0 .8.3 1.3.8 1.4l13.7-13.7-13.7-13.7z"/><linearGradient id="d" gradientUnits="userSpaceOnUse" x1="397.656" y1="-793.807" x2="381.996" y2="-773.176" gradientTransform="rotate(45 -928.474 -797.96)"><stop offset="0" stop-color="#f04a2b"/><stop offset=".47" stop-color="#b54f6b"/><stop offset=".835" stop-color="#8b5191"/><stop offset="1" stop-color="#7851a1"/></linearGradient><path fill="url(#d)" d="M-15.2 151.5c.4.1.8.1 1.3-.2l16.7-9.2-4.3-4.3-13.7 13.7z"/></svg>