<svg version="1" xmlns="http://www.w3.org/2000/svg" width="375" height="90" viewBox="0 0 375 90"><path fill="#00ACE6" d="M139.2 60.5c-4.4 0-8.7-.7-11.6-1.6-.6-.2-1.1-.5-1.1-1.1v-4.5c0-.6.4-1 1-1h.1c3.9.3 8.1.5 11.1.5 4 0 5.5-1.7 5.5-4.8v-1c0-2.5-.9-4.8-4.5-4.8h-9.9c-.6 0-1.1-.5-1.1-1.1v-4.8c0-.6.4-1.1 1.1-1.1h9.6c3.6 0 4.8-2.4 4.8-4.9v-.8c0-2.5-1.2-4.2-5.5-4.2-3.9 0-6.8.3-11 .7h-.1c-.6 0-1-.4-1-1v-4.5c0-.6.6-.9 1.1-1.1 2.9-.9 7.1-1.7 11.4-1.7 9.1 0 14.6 3.1 14.6 11.5v.8c0 3.2-2 6.9-5 8.6 3.1 1.6 5 4.8 5 8.4v1c.1 8.7-5.9 12.5-14.5 12.5zm67-33.6l-5.3 28.9c-.7 3.4-2.8 4.2-5.3 4.2h-4.7c-2.9 0-4.4-1.6-5-3.8l-3-19.9c-.1-.3-.1-.3-.3-.3-.2 0-.2 0-.3.3l-3 19.9c-.6 2.3-2.2 3.8-5 3.8h-4.7c-2.5 0-4.6-.8-5.3-4.2L159 26.9v-.2c0-.5.4-1 .9-1h7.3c.7 0 1.1.1 1.3 1l3.5 22.8c.1.5.2.8.4.8s.4-.2.5-.8l4-21.1c.5-2.1 1.4-2.7 3.4-2.7h4.9c1.9 0 2.8.6 3.4 2.7l4 21.1c.1.5.3.8.5.8.1 0 .3-.3.4-.8l3.5-22.8c.1-.9.5-1 1.3-1h7.3c.5 0 .9.5.9 1-.3 0-.3.2-.3.2zM236.8 60h-6.7c-.7 0-1.2-.5-1.2-1.2v-1c-2.3 1.7-4.7 2.7-8.3 2.7-5.2 0-10.3-2.5-10.3-10.3v-.5c0-7 4.5-10.1 14.8-10.1h3.2v-2.2c0-3.4-1.7-4.1-4.5-4.1-3.8 0-8.1.2-10 .4h-.3c-.6 0-1.1-.3-1.1-1.1v-4.9c0-.7.4-1.1 1.1-1.3 2.2-.5 6.4-1.3 10.4-1.3 8.6 0 14 3.5 14 12.2v21.4c.1.8-.4 1.3-1.1 1.3zm-8.3-14.7h-3.4c-4.2 0-5.3 1.4-5.3 4.4v.5c0 2.5 1.3 3 3.8 3 1.8 0 3.5-.6 4.9-1.3v-6.6zM275.8 27l-10.1 35.3c-1.9 6.5-4.3 9.8-13.1 9.8-2.2 0-5.8-.5-7.3-1-.7-.2-1.3-.4-1.3-1.1v-4.9c0-.7.5-1.1 1.2-1.1h.1c2 .1 5.5.5 7.5.5 2.2 0 3.2-.7 4-3.1l.5-1.9h-.9c-2.2 0-4.1-.4-5.6-5.6l-7.9-27c-.1-.2-.1-.3-.1-.4 0-.6.4-1 1.2-1h8c.6 0 1 .5 1.1 1.1l5.4 22.6c.2.8.4 1.1.7 1.1h.5l5.6-23.7c.1-.6.6-1.1 1.3-1.1h8c.6 0 1.1.5 1.1 1.1.1.3.1.3.1.4z"/><path fill="#A2A2A2" d="M297.7 60.2c-1.2.2-2.8.3-3.9.3-5.5 0-8.2-1.4-8.2-8v-21l-5.8-.7c-.7-.1-1.1-.4-1.1-1.1v-1.6c0-.7.5-1.1 1.1-1.1h5.8v-7.9c0-.6.4-1.1 1.1-1.2l3.1-.5h.2c.5 0 .9.4.9 1V27h6.5c.7 0 1.2.5 1.2 1.2v2c0 .7-.5 1.2-1.2 1.2h-6.5v20.9c0 3.3.8 3.8 3.2 3.8h3.4c.8 0 1.3.2 1.3.8V59c-.1.7-.4 1-1.1 1.2zm28.4-.2h-2.8c-.7 0-1.2-.5-1.2-1.2v-1.3c-2.9 1.7-5.9 2.9-9.2 2.9-5.1 0-9.8-2.2-9.8-9.7V50c0-6.5 3.8-9.7 14.5-9.7h4.4v-2.4c0-5-1.7-6.8-6.4-6.8-3.9 0-6.8.2-9.2.5h-.3c-.5 0-1.1-.2-1.1-1v-2.1c0-.7.4-1 1.3-1.1 2.5-.4 5.2-.8 9.3-.8 8.3 0 11.7 4.2 11.7 11.3v20.9c0 .7-.5 1.2-1.2 1.2zM322 44.1h-4.4c-7.3 0-9.2 1.6-9.2 5.9v.7c0 4.3 2 5.5 5.5 5.5 2.8 0 5.2-.8 8.1-2.4v-9.7zM340.3 60h-3.1c-.6 0-1.1-.5-1.1-1.2V17.1c0-.6.4-1.1 1.1-1.1h3.1c.6 0 1.1.5 1.1 1.1v41.8c-.1.5-.5 1.1-1.1 1.1zm32.7 0h-4.3c-.7 0-.9-.2-1.4-.8l-11.9-14.8v14.3c0 .7-.5 1.2-1.2 1.2h-2.9c-.7 0-1.2-.5-1.2-1.2V17.1c0-.7.5-1.2 1.2-1.2h2.9c.7 0 1.2.5 1.2 1.2v24l12-13.5c.4-.4.6-.5 1.2-.5h4.2c.6 0 .9.3.9.7 0 .2-.1.5-.3.7l-13.2 14.3 13.3 16.1c.1.1.2.4.2.5 0 .3-.3.6-.7.6zM51.3 0h-.1C16.8 0 .1 7.7.1 23.5c0 0-.1 2.8-.1 2.9 0 8.4 1.2 11.3 14.8 11.3 13.8 0 15.1-1.9 15.4-10.8v-1.3-1.5c0-4.2 2.5-6.7 7.7-7.5l.9-.1c2.6-.3 4.3-.5 12.5-.5s9.9.2 12.5.5l.9.1c5.2.8 7.7 3.3 7.7 7.5v2.7c.2 8.9 1.6 10.8 15.4 10.8 13.1 0 14.6-2.3 14.8-11.4V23.3C102.4 7.7 85.7 0 51.3 0z"/><path fill="#A2A2A2" d="M54.3 28.8l2.8.3c1.7.2 3.3 1.8 3.5 3.5l.4 3.1c.2 2 .2 5.2 0 7.1l-.3 2.8c-.2 1.7-1.8 3.3-3.5 3.6l-2.3.3c-2 .2-5.1.2-7.1 0l-2.3-.3c-1.7-.2-3.3-1.8-3.5-3.6l-.4-3.3c-.2-2-.2-5.2 0-7.1l.3-2.6c.2-1.7 1.8-3.4 3.6-3.6l1.9-.2c1.8-.3 5-.3 6.9 0z"/><path fill="#00ACE6" d="M87.7 40.2c-14 0-15.1 1.9-15.4 10.8 0 1.9-.1.7-.1 2.8 0 4.5-2.9 6.8-7.7 7.5-3.2.4-4.3.6-13.3.6s-10.2-.3-13.3-.6c-4.8-.8-7.7-3-7.7-7.5 0-2 0-.9-.1-2.8-.1-9-1.3-10.8-15.3-10.8C1.6 40.2.3 42.7 0 51.5c0 3 .1.6.1 2.8.2 14 12.8 23.5 51.1 23.5h.2c1.9 0 3.8 0 5.6-.1 5.5 0 8.7 1.1 10.1 1.7l19.4 9.8c3.9 2 5.8.3 4.2-3.8l-2.5-6.3c-1.9-4.6 3.7-8.2 3.7-8.2 7.5-4.1 10.6-9.9 10.7-16.7 0-2.2.1.1.1-2.8-.4-8.7-1.8-11.2-15-11.2z"/></svg>