<?xml version="1.0" encoding="utf-8"?>
<!-- Generator: Adobe Illustrator 18.0.0, SVG Export Plug-In . SVG Version: 6.00 Build 0)  -->
<!DOCTYPE svg PUBLIC "-//W3C//DTD SVG 1.0//EN" "http://www.w3.org/TR/2001/REC-SVG-20010904/DTD/svg10.dtd">
<svg version="1.0" id="Layer_1" xmlns="http://www.w3.org/2000/svg" xmlns:xlink="http://www.w3.org/1999/xlink" x="0px" y="0px"
	 width="375px" height="90px" viewBox="0 0 375 90" enable-background="new 0 0 375 90" xml:space="preserve">
<g>
	<path fill="#00ACE6" d="M139.2,60.5c-4.4,0-8.7-0.7-11.6-1.6c-0.6-0.2-1.1-0.5-1.1-1.1v-4.5c0-0.6,0.4-1,1-1c0.1,0,0.1,0,0.1,0
		c3.9,0.3,8.1,0.5,11.1,0.5c4,0,5.5-1.7,5.5-4.8v-1c0-2.5-0.9-4.8-4.5-4.8h-9.9c-0.6,0-1.1-0.5-1.1-1.1v-4.8c0-0.6,0.4-1.1,1.1-1.1
		h9.6c3.6,0,4.8-2.4,4.8-4.9v-0.8c0-2.5-1.2-4.2-5.5-4.2c-3.9,0-6.8,0.3-11,0.7c-0.1,0-0.1,0-0.1,0c-0.6,0-1-0.4-1-1v-4.5
		c0-0.6,0.6-0.9,1.1-1.1c2.9-0.9,7.1-1.7,11.4-1.7c9.1,0,14.6,3.1,14.6,11.5v0.8c0,3.2-2,6.9-5,8.6c3.1,1.6,5,4.8,5,8.4v1
		C153.8,56.7,147.8,60.5,139.2,60.5z M206.2,26.9l-5.3,28.9c-0.7,3.4-2.8,4.2-5.3,4.2h-4.7c-2.9,0-4.4-1.6-5-3.8l-3-19.9
		c-0.1-0.3-0.1-0.3-0.3-0.3c-0.2,0-0.2,0-0.3,0.3l-3,19.9c-0.6,2.3-2.2,3.8-5,3.8h-4.7c-2.5,0-4.6-0.8-5.3-4.2l-5.3-28.9
		c0-0.1,0-0.2,0-0.2c0-0.5,0.4-1,0.9-1h7.3c0.7,0,1.1,0.1,1.3,1l3.5,22.8c0.1,0.5,0.2,0.8,0.4,0.8c0.2,0,0.4-0.2,0.5-0.8l4-21.1
		c0.5-2.1,1.4-2.7,3.4-2.7h4.9c1.9,0,2.8,0.6,3.4,2.7l4,21.1c0.1,0.5,0.3,0.8,0.5,0.8c0.1,0,0.3-0.3,0.4-0.8l3.5-22.8
		c0.1-0.9,0.5-1,1.3-1h7.3c0.5,0,0.9,0.5,0.9,1C206.2,26.7,206.2,26.9,206.2,26.9z M236.8,60h-6.7c-0.7,0-1.2-0.5-1.2-1.2v-1
		c-2.3,1.7-4.7,2.7-8.3,2.7c-5.2,0-10.3-2.5-10.3-10.3v-0.5c0-7,4.5-10.1,14.8-10.1h3.2v-2.2c0-3.4-1.7-4.1-4.5-4.1
		c-3.8,0-8.1,0.2-10,0.4h-0.3c-0.6,0-1.1-0.3-1.1-1.1v-4.9c0-0.7,0.4-1.1,1.1-1.3c2.2-0.5,6.4-1.3,10.4-1.3c8.6,0,14,3.5,14,12.2
		v21.4C238,59.5,237.5,60,236.8,60z M228.5,45.3h-3.4c-4.2,0-5.3,1.4-5.3,4.4v0.5c0,2.5,1.3,3,3.8,3c1.8,0,3.5-0.6,4.9-1.3V45.3z
		 M275.8,27l-10.1,35.3c-1.9,6.5-4.3,9.8-13.1,9.8c-2.2,0-5.8-0.5-7.3-1c-0.7-0.2-1.3-0.4-1.3-1.1v-4.9c0-0.7,0.5-1.1,1.2-1.1
		c0.1,0,0.1,0,0.1,0c2,0.1,5.5,0.5,7.5,0.5c2.2,0,3.2-0.7,4-3.1l0.5-1.9h-0.9c-2.2,0-4.1-0.4-5.6-5.6l-7.9-27
		c-0.1-0.2-0.1-0.3-0.1-0.4c0-0.6,0.4-1,1.2-1h8c0.6,0,1,0.5,1.1,1.1l5.4,22.6c0.2,0.8,0.4,1.1,0.7,1.1h0.1c0.1,0,0.2,0,0.2,0
		c0.2,0,0.2,0,0.2,0l5.6-23.7c0.1-0.6,0.6-1.1,1.3-1.1h8c0.6,0,1.1,0.5,1.1,1.1C275.8,26.9,275.8,26.9,275.8,27z"/>
	<path fill="#A2A2A2" d="M297.7,60.2c-1.2,0.2-2.8,0.3-3.9,0.3c-5.5,0-8.2-1.4-8.2-8V31.5l-5.8-0.7c-0.7-0.1-1.1-0.4-1.1-1.1v-1.6
		c0-0.7,0.5-1.1,1.1-1.1h5.8v-7.9c0-0.6,0.4-1.1,1.1-1.2l3.1-0.5c0.1,0,0.1,0,0.2,0c0.5,0,0.9,0.4,0.9,1V27h6.5
		c0.7,0,1.2,0.5,1.2,1.2v2c0,0.7-0.5,1.2-1.2,1.2h-6.5v20.9c0,3.3,0.8,3.8,3.2,3.8h3.4c0.8,0,1.3,0.2,1.3,0.8v2.1
		C298.7,59.7,298.4,60,297.7,60.2z M326.1,60h-2.8c-0.7,0-1.2-0.5-1.2-1.2v-1.3c-2.9,1.7-5.9,2.9-9.2,2.9c-5.1,0-9.8-2.2-9.8-9.7V50
		c0-6.5,3.8-9.7,14.5-9.7h4.4v-2.4c0-5-1.7-6.8-6.4-6.8c-3.9,0-6.8,0.2-9.2,0.5c-0.1,0-0.2,0-0.3,0c-0.5,0-1.1-0.2-1.1-1v-2.1
		c0-0.7,0.4-1,1.3-1.1c2.5-0.4,5.2-0.8,9.3-0.8c8.3,0,11.7,4.2,11.7,11.3v20.9C327.3,59.5,326.8,60,326.1,60z M322,44.1h-4.4
		c-7.3,0-9.2,1.6-9.2,5.9v0.7c0,4.3,2,5.5,5.5,5.5c2.8,0,5.2-0.8,8.1-2.4V44.1z M340.3,60h-3.1c-0.6,0-1.1-0.5-1.1-1.2V17.1
		c0-0.6,0.4-1.1,1.1-1.1h3.1c0.6,0,1.1,0.5,1.1,1.1v41.8C341.3,59.4,340.9,60,340.3,60z M373,60h-4.3c-0.7,0-0.9-0.2-1.4-0.8
		l-11.9-14.8v14.3c0,0.7-0.5,1.2-1.2,1.2h-2.9c-0.7,0-1.2-0.5-1.2-1.2V17.1c0-0.7,0.5-1.2,1.2-1.2h2.9c0.7,0,1.2,0.5,1.2,1.2v24
		l12-13.5c0.4-0.4,0.6-0.5,1.2-0.5h4.2c0.6,0,0.9,0.3,0.9,0.7c0,0.2-0.1,0.5-0.3,0.7l-13.2,14.3l13.3,16.1c0.1,0.1,0.2,0.4,0.2,0.5
		C373.7,59.7,373.4,60,373,60z"/>
	<path fill="#A2A2A2" d="M51.3,0c0,0-0.1,0-0.1,0C16.8,0,0.1,7.7,0.1,23.5c0,0-0.1,2.8-0.1,2.9c0,8.4,1.2,11.3,14.8,11.3
		c13.8,0,15.1-1.9,15.4-10.8c0,0,0-1.2,0-1.3c0,0,0-1.5,0-1.5c0-4.2,2.5-6.7,7.7-7.5c0,0,0.9-0.1,0.9-0.1c2.6-0.3,4.3-0.5,12.5-0.5
		c8.2,0,9.9,0.2,12.5,0.5c0,0,0.9,0.1,0.9,0.1c5.2,0.8,7.7,3.3,7.7,7.5c0,0,0,1.5,0,1.5c0,0,0,1.2,0,1.2c0.2,8.9,1.6,10.8,15.4,10.8
		c13.1,0,14.6-2.3,14.8-11.4c0,0,0-2.1,0-2.1l0-0.8C102.4,7.7,85.7,0,51.3,0z"/>
	<g>
		<g>
			<path fill="#A2A2A2" d="M54.3,28.8l2.8,0.3c1.7,0.2,3.3,1.8,3.5,3.5l0.4,3.1c0.2,2,0.2,5.2,0,7.1l-0.3,2.8
				c-0.2,1.7-1.8,3.3-3.5,3.6l-2.3,0.3c-2,0.2-5.1,0.2-7.1,0l-2.3-0.3c-1.7-0.2-3.3-1.8-3.5-3.6l-0.4-3.3c-0.2-2-0.2-5.2,0-7.1
				l0.3-2.6c0.2-1.7,1.8-3.4,3.6-3.6l1.9-0.2C49.2,28.5,52.4,28.5,54.3,28.8z"/>
		</g>
	</g>
	<path fill="#00ACE6" d="M87.7,40.2c-14,0-15.1,1.9-15.4,10.8c0,1.9-0.1,0.7-0.1,2.8c0,4.5-2.9,6.8-7.7,7.5
		c-3.2,0.4-4.3,0.6-13.3,0.6c-9,0-10.2-0.3-13.3-0.6c-4.8-0.8-7.7-3-7.7-7.5c0-2,0-0.9-0.1-2.8C30,42,28.8,40.2,14.8,40.2
		C1.6,40.2,0.3,42.7,0,51.5c0,3,0.1,0.6,0.1,2.8c0.2,14,12.8,23.5,51.1,23.5v0h0c0,0,0,0,0.1,0c0,0,0,0,0.1,0h0v0
		c1.9,0,3.8,0,5.6-0.1l0,0c5.5,0,8.7,1.1,10.1,1.7l19.4,9.8c3.9,2,5.8,0.3,4.2-3.8l-2.5-6.3c-1.9-4.6,3.7-8.2,3.7-8.2l0,0
		c7.5-4.1,10.6-9.9,10.7-16.7c0-2.2,0.1,0.1,0.1-2.8C102.3,42.7,100.9,40.2,87.7,40.2z"/>
</g>
</svg>
