<?xml version="1.0" encoding="utf-8"?>
<!-- Generator: Adobe Illustrator 18.0.0, SVG Export Plug-In . SVG Version: 6.00 Build 0)  -->
<!DOCTYPE svg PUBLIC "-//W3C//DTD SVG 1.0//EN" "http://www.w3.org/TR/2001/REC-SVG-20010904/DTD/svg10.dtd">
<svg version="1.0" id="Layer_1" xmlns="http://www.w3.org/2000/svg" xmlns:xlink="http://www.w3.org/1999/xlink" x="0px" y="0px"
	 width="15px" height="24px" viewBox="0 140 15 24" enable-background="new 0 140 15 24" xml:space="preserve">
<g>
	<path fill="#00ACE6" d="M8.1,140H6.8C3,140.3,0,143.5,0,147.4v9.1c0,4.1,3.3,7.5,7.5,7.5c4.1,0,7.5-3.3,7.5-7.5v-9.1
		C14.9,143.5,11.9,140.3,8.1,140z M13.7,156.5c0,3.4-2.8,6.2-6.2,6.2c-3.4,0-6.2-2.8-6.2-6.2v-9.1c0-3.4,2.8-6.2,6.2-6.2
		c3.4,0,6.2,2.8,6.2,6.2V156.5z"/>
	<path fill="#00ACE6" d="M7.5,146.3c-0.6,0-1,0.4-1,1v2.6c0,0.6,0.4,1,1,1c0.6,0,1-0.4,1-1v-2.6C8.5,146.8,8,146.3,7.5,146.3z"/>
</g>
</svg>
