<?xml version="1.0" encoding="utf-8"?>
<!-- Generator: Adobe Illustrator 18.0.0, SVG Export Plug-In . SVG Version: 6.00 Build 0)  -->
<!DOCTYPE svg PUBLIC "-//W3C//DTD SVG 1.0//EN" "http://www.w3.org/TR/2001/REC-SVG-20010904/DTD/svg10.dtd">
<svg version="1.0" id="Layer_1" xmlns="http://www.w3.org/2000/svg" xmlns:xlink="http://www.w3.org/1999/xlink" x="0px" y="0px"
	 width="30px" height="250px" viewBox="-81 296 30 250" enable-background="new -81 296 30 250" xml:space="preserve">
<g id="arrow-big">
	<g>
		<path id="Shape-1" fill="#191919" d="M-60.4,546L-66,296l-5.6,250H-60.4z"/>
		<path id="Ellipse-1" fill="#181818" d="M-79.8,479.4c3.6-7.6,12.7-10.9,20.4-7.2c7.6,3.6,10.9,12.7,7.2,20.4
			c-3.6,7.6-12.7,10.9-20.4,7.2C-80.2,496.2-83.4,487.1-79.8,479.4z"/>
		<path id="Ellipse-1_1_" fill="#C6C6C6" d="M-71,483.6c1.3-2.8,4.6-3.9,7.4-2.6c2.8,1.3,3.9,4.6,2.6,7.4c-1.3,2.8-4.6,3.9-7.4,2.6
			C-71.2,489.7-72.3,486.4-71,483.6z"/>
	</g>
</g>
</svg>
