<?xml version="1.0" encoding="utf-8"?>
<!-- Generator: Adobe Illustrator 18.0.0, SVG Export Plug-In . SVG Version: 6.00 Build 0)  -->
<!DOCTYPE svg PUBLIC "-//W3C//DTD SVG 1.0//EN" "http://www.w3.org/TR/2001/REC-SVG-20010904/DTD/svg10.dtd">
<svg version="1.0" id="Layer_1" xmlns="http://www.w3.org/2000/svg" xmlns:xlink="http://www.w3.org/1999/xlink" x="0px" y="0px"
	 width="20px" height="20px" viewBox="0 140 20 20" enable-background="new 0 140 20 20" xml:space="preserve">
<g>
	<g>
		<path fill="#FFFFFF" d="M19.2,160c-0.2,0-0.4-0.1-0.6-0.2L0.2,141.4c-0.3-0.3-0.3-0.8,0-1.1c0.3-0.3,0.8-0.3,1.1,0l18.4,18.4
			c0.3,0.3,0.3,0.8,0,1.1C19.6,159.9,19.4,160,19.2,160z"/>
	</g>
	<g>
		<path fill="#FFFFFF" d="M0.8,160c-0.2,0-0.4-0.1-0.6-0.2c-0.3-0.3-0.3-0.8,0-1.1l18.4-18.4c0.3-0.3,0.8-0.3,1.1,0
			c0.3,0.3,0.3,0.8,0,1.1L1.4,159.8C1.2,159.9,1,160,0.8,160z"/>
	</g>
</g>
</svg>
