<?xml version="1.0" encoding="utf-8"?>
<!-- Generator: Adobe Illustrator 18.0.0, SVG Export Plug-In . SVG Version: 6.00 Build 0)  -->
<!DOCTYPE svg PUBLIC "-//W3C//DTD SVG 1.0//EN" "http://www.w3.org/TR/2001/REC-SVG-20010904/DTD/svg10.dtd">
<svg version="1.0" id="Layer_1" xmlns:sketch="http://www.bohemiancoding.com/sketch/ns"
	 xmlns="http://www.w3.org/2000/svg" xmlns:xlink="http://www.w3.org/1999/xlink" x="0px" y="0px" width="40px" height="40px"
	 viewBox="0 0 40 40" enable-background="new 0 0 40 40" xml:space="preserve">
<title>Shape 7</title>
<desc>Created with Sketch Beta.</desc>
<g id="Travel-Blogs" sketch:type="MSPage">
	<g id="desktop-collapsed-list" transform="translate(-185.000000, -786.000000)" sketch:type="MSArtboardGroup">
		<g id="Social-buttons" transform="translate(170.000000, 777.000000)" sketch:type="MSLayerGroup">
			<g id="Rectangle-197-_x2B_-facebook_x5F_icon" sketch:type="MSShapeGroup">
				<g id="facebook_icon" transform="translate(15.000000, 9.000000)">
					<path id="Shape-7" fill="#00BFFF" d="M17.7,18v-0.8v-0.8v-0.1c0-0.8,0-1.9,0.6-2.6c0.6-0.8,1.3-1.2,2.6-1.2c2.1,0,3,0.3,3,0.3
						l-0.4,2.6c0,0-0.7-0.2-1.4-0.2c-0.7,0-1.2,0.2-1.2,0.9v0.3v0.9v0.8h2.5l-0.3,2.4h-2.3v3.9v3.3h-3.2l0-7.1h-1.5l0-2.4L17.7,18
						L17.7,18z"/>
				</g>
			</g>
		</g>
	</g>
</g>
</svg>
