<?xml version="1.0" encoding="utf-8"?>
<!-- Generator: Adobe Illustrator 18.0.0, SVG Export Plug-In . SVG Version: 6.00 Build 0)  -->
<!DOCTYPE svg PUBLIC "-//W3C//DTD SVG 1.0//EN" "http://www.w3.org/TR/2001/REC-SVG-20010904/DTD/svg10.dtd">
<svg version="1.0" id="Layer_1" xmlns="http://www.w3.org/2000/svg" xmlns:xlink="http://www.w3.org/1999/xlink" x="0px" y="0px"
	 width="170px" height="60px" viewBox="-24 100 170 60" enable-background="new -24 100 170 60" xml:space="preserve">
<g>
	<g>
		<g>
			<path fill="#FFFFFF" d="M91.9,142.6l-1.3,1.2c-0.3,0.2-0.6,0.3-0.9,0.5c-0.9,0.4-1.8,0.5-2.6,0.5c-0.8,0-2.2-0.1-3.5-1
				c-1.9-1.3-2.7-3.6-2.7-5.6c0-4.1,3.3-6.1,6.1-6.1c1,0,1.9,0.2,2.7,0.7c1.3,0.9,1.7,2,1.9,2.6l-6.2,2.5l-2,0.2
				c0.7,3.4,2.9,5.3,5.4,5.3C90.1,143.4,91,143,91.9,142.6C91.9,142.5,92,142.4,91.9,142.6z M88.1,135.9c0.5-0.2,0.8-0.3,0.8-0.7
				c0-1.1-1.2-2.3-2.6-2.3c-1.1,0-3,0.8-3,3.7c0,0.4,0.1,0.9,0.1,1.4L88.1,135.9z"/>
			<path fill="#FFFFFF" d="M78.9,142.4c0,1,0.2,1.2,1.1,1.3c0.5,0.1,0.9,0.1,1.4,0.1l-1,0.6h-4.7c0.6-0.8,0.7-0.9,0.7-1.4v-0.6
				l0-15.7h-2.1l2-1h3.8c-0.8,0.5-1.1,0.8-1.2,1.7L78.9,142.4z"/>
			<path fill="#FFFFFF" d="M71.7,133.3c0.6,0.5,1.9,1.6,1.9,3.6c0,2-1.1,2.9-2.2,3.8c-0.3,0.3-0.7,0.7-0.7,1.3
				c0,0.6,0.4,0.9,0.7,1.1l1,0.7c1.2,1,2.2,1.9,2.2,3.7c0,2.5-2.4,5-7,5c-3.8,0-5.7-1.8-5.7-3.8c0-1,0.5-2.3,2-3.2
				c1.6-1,3.9-1.1,5.1-1.2c-0.4-0.5-0.8-1-0.8-1.8c0-0.4,0.1-0.7,0.3-1c-0.3,0-0.6,0.1-0.8,0.1c-2.8,0-4.4-2.1-4.4-4.2
				c0-1.2,0.6-2.6,1.7-3.5c1.5-1.2,3.3-1.5,4.7-1.5H75l-1.7,1L71.7,133.3L71.7,133.3z M69.8,145.1c-0.2,0-0.3,0-0.6,0
				c-0.2,0-1.7,0.1-2.8,0.4c-0.6,0.2-2.3,0.8-2.3,2.7c0,1.9,1.8,3.2,4.7,3.2c2.5,0,3.9-1.2,3.9-2.9
				C72.7,147.2,71.8,146.5,69.8,145.1z M70.6,140c0.6-0.6,0.7-1.5,0.7-1.9c0-1.9-1.1-4.9-3.3-4.9c-0.7,0-1.4,0.3-1.9,0.9
				c-0.4,0.6-0.6,1.3-0.6,2c0,1.8,1,4.7,3.3,4.7C69.4,140.8,70.1,140.4,70.6,140z"/>
			<path fill="#FFFFFF" d="M55.3,144.7c-4.2,0-6.5-3.3-6.5-6.2c0-3.5,2.8-6.4,6.9-6.4c3.9,0,6.3,3,6.3,6.2
				C62,141.4,59.6,144.7,55.3,144.7z M58.6,142.5c0.6-0.8,0.8-1.9,0.8-2.9c0-2.3-1.1-6.8-4.4-6.8c-0.9,0-1.8,0.3-2.4,0.9
				c-1,0.9-1.2,2.1-1.2,3.2c0,2.6,1.3,6.9,4.5,6.9C56.9,143.9,58,143.4,58.6,142.5z"/>
			<path fill="#FFFFFF" d="M41.2,144.7c-4.2,0-6.5-3.3-6.5-6.2c0-3.5,2.8-6.4,6.9-6.4c3.9,0,6.3,3,6.3,6.2
				C47.9,141.4,45.5,144.7,41.2,144.7z M44.5,142.5c0.6-0.8,0.8-1.9,0.8-2.9c0-2.3-1.1-6.8-4.4-6.8c-0.9,0-1.7,0.3-2.4,0.9
				c-1,0.9-1.2,2.1-1.2,3.2c0,2.6,1.3,6.9,4.5,6.9C42.8,143.9,43.9,143.4,44.5,142.5z"/>
			<path fill="#FFFFFF" d="M33.1,143.8l-3.5,0.8c-1.4,0.2-2.7,0.4-4.1,0.4c-6.8,0-9.4-5-9.4-9c0-4.8,3.7-9.3,10-9.3
				c1.3,0,2.6,0.2,3.8,0.5c1.9,0.5,2.7,1.2,3.3,1.5l-2.1,2l-0.9,0.2l0.6-1c-0.8-0.8-2.4-2.3-5.3-2.3c-3.9,0-6.9,3-6.9,7.3
				c0,4.7,3.4,9,8.8,9c1.6,0,2.4-0.3,3.1-0.6v-4l-3.7,0.2l2-1.1H34l-0.6,0.6c-0.2,0.1-0.2,0.2-0.2,0.4c0,0.2,0,0.9,0,1.2L33.1,143.8
				L33.1,143.8L33.1,143.8z"/>
		</g>
		<g>
			<path fill="#FFFFFF" d="M99.5,142.7v6.7h-1.3v-17.1h1.3v2c0.9-1.3,2.5-2.3,4.3-2.3c3.3,0,5.6,2.5,5.6,6.5c0,4-2.2,6.5-5.6,6.5
				C102.1,145,100.5,144.1,99.5,142.7z M108,138.5c0-3-1.6-5.3-4.3-5.3c-1.7,0-3.4,1.4-4.1,2.5v5.5c0.7,1.2,2.4,2.6,4.1,2.6
				C106.4,143.8,108,141.5,108,138.5z"/>
			<path fill="#FFFFFF" d="M111.2,144.7v-17.1h1.3v17.1H111.2z"/>
			<path fill="#FFFFFF" d="M127.6,148.3c0.3,0.1,0.8,0.2,1.1,0.2c0.8,0,1.4-0.3,1.9-1.5l1-2.2l-5.3-12.5h1.5l4.5,10.8l4.5-10.8h1.5
				l-6.4,15.1c-0.7,1.6-1.7,2.3-3.2,2.3c-0.4,0-1-0.1-1.3-0.2L127.6,148.3z"/>
			<path fill="#FFFFFF" d="M123.7,144.6c-0.1-0.4-0.2-0.8-0.2-1.1c0-0.3-0.1-0.6-0.1-1c-0.5,0.7-1.1,1.2-1.9,1.7
				c-0.8,0.4-1.6,0.7-2.7,0.7c-1.3,0-2.3-0.3-3-1c-0.7-0.6-1.1-1.5-1.1-2.6c0-1.1,0.5-2,1.6-2.7c1-0.7,2.4-1,4.1-1h3.1V136
				c0-0.9-0.3-1.6-0.9-2.1c-0.6-0.5-1.5-0.8-2.6-0.8c-1,0-1.8,0.2-2.5,0.7c-0.6,0.5-0.9,1-0.9,1.7h-1.4l0-0.1c0-0.9,0.4-1.8,1.3-2.5
				c0.9-0.7,2.1-1.1,3.6-1.1c1.5,0,2.6,0.4,3.5,1.1c0.9,0.7,1.3,1.7,1.3,3v6.1c0,0.4,0,0.9,0.1,1.3c0.1,0.4,0.1,0.8,0.3,1.2
				L123.7,144.6L123.7,144.6z M118.9,143.7c1.1,0,2-0.3,2.8-0.8c0.8-0.5,1.4-1.1,1.7-1.9v-2.4h-3.1c-1.2,0-2.2,0.3-3,0.8
				c-0.8,0.5-1.2,1.2-1.2,1.9c0,0.7,0.3,1.3,0.8,1.7C117.4,143.5,118,143.7,118.9,143.7z"/>
		</g>
	</g>
	<g>
		<g>
			<path fill="#FFFFFF" d="M16,113.5c0-2.6,2-4.3,4.4-4.3c1.6,0,2.7,0.8,3.4,1.7l-1.2,0.7c-0.5-0.6-1.2-1.1-2.2-1.1
				c-1.7,0-2.9,1.3-2.9,3c0,1.7,1.2,3,2.9,3c0.9,0,1.6-0.4,2-0.8v-1.3h-2.5v-1.3h4v3.1c-0.8,0.9-2,1.5-3.4,1.5
				C18,117.8,16,116.1,16,113.5z"/>
			<path fill="#FFFFFF" d="M25.7,117.7v-8.4h5.7v1.3h-4.3v2.2h4.2v1.3h-4.2v2.3h4.3v1.3L25.7,117.7L25.7,117.7z"/>
			<path fill="#FFFFFF" d="M35.5,117.7v-7.1h-2.5v-1.3h6.5v1.3h-2.5v7.1H35.5z"/>
			<path fill="#FFFFFF" d="M44.6,117.7v-8.4H46v8.4H44.6z"/>
			<path fill="#FFFFFF" d="M50.1,117.7v-7.1h-2.5v-1.3h6.5v1.3h-2.5v7.1H50.1z"/>
			<path fill="#FFFFFF" d="M58.9,113.5c0-2.5,1.8-4.3,4.3-4.3c2.5,0,4.3,1.8,4.3,4.3s-1.8,4.3-4.3,4.3
				C60.6,117.8,58.9,116,58.9,113.5z M65.9,113.5c0-1.7-1.1-3-2.8-3c-1.7,0-2.8,1.3-2.8,3c0,1.7,1.1,3,2.8,3
				C64.8,116.5,65.9,115.2,65.9,113.5z"/>
			<path fill="#FFFFFF" d="M75,117.7l-4.4-6v6h-1.5v-8.4h1.5l4.3,5.8v-5.8h1.5v8.4H75z"/>
		</g>
	</g>
	<g>
		<polygon fill="none" points="-1.5,137.8 2.8,133.5 2.8,133.5 -1.5,137.8 -15.2,124.1 -15.2,124.1 -1.5,137.8 -15.2,151.5 
			-15.2,151.5 -1.5,137.8 2.8,142.1 2.8,142.1 		"/>
		
			<linearGradient id="SVGID_1_" gradientUnits="userSpaceOnUse" x1="385.8472" y1="-790.5118" x2="367.7592" y2="-801.8321" gradientTransform="matrix(0.7071 0.7071 -0.7071 0.7071 -836.1876 422.8016)">
			<stop  offset="0" style="stop-color:#D7E69D"/>
			<stop  offset="0.4456" style="stop-color:#94C4AA"/>
			<stop  offset="1" style="stop-color:#01A4B6"/>
		</linearGradient>
		<path fill="url(#SVGID_1_)" d="M2.8,133.5l-16.7-9.2c-0.5-0.3-0.9-0.3-1.3-0.2l13.7,13.7L2.8,133.5z"/>
		
			<linearGradient id="SVGID_2_" gradientUnits="userSpaceOnUse" x1="375.3322" y1="-800.1819" x2="398.783" y2="-794.0516" gradientTransform="matrix(0.7071 0.7071 -0.7071 0.7071 -836.1876 422.8016)">
			<stop  offset="0" style="stop-color:#ED277B"/>
			<stop  offset="1.920000e-02" style="stop-color:#EE2F7C"/>
			<stop  offset="0.7039" style="stop-color:#F7BD81"/>
			<stop  offset="1" style="stop-color:#FEEB74"/>
		</linearGradient>
		<path fill="url(#SVGID_2_)" d="M2.8,142.1l5.7-3.1c1.2-0.6,1.2-1.7,0-2.3l-5.7-3.1l-4.3,4.3L2.8,142.1z"/>
		
			<linearGradient id="SVGID_3_" gradientUnits="userSpaceOnUse" x1="388.4223" y1="-781.9256" x2="362.9914" y2="-796.8876" gradientTransform="matrix(0.7071 0.7071 -0.7071 0.7071 -836.1876 422.8016)">
			<stop  offset="0" style="stop-color:#89CFBD"/>
			<stop  offset="9.070000e-02" style="stop-color:#7DBEBB"/>
			<stop  offset="0.5396" style="stop-color:#457CAC"/>
			<stop  offset="0.8523" style="stop-color:#1C5AA2"/>
			<stop  offset="1" style="stop-color:#084D9F"/>
		</linearGradient>
		<path fill="url(#SVGID_3_)" d="M-15.2,124.1c-0.5,0.2-0.8,0.7-0.8,1.5l0,24.5c0,0.8,0.3,1.3,0.8,1.4l13.7-13.7L-15.2,124.1z"/>
		
			<linearGradient id="SVGID_4_" gradientUnits="userSpaceOnUse" x1="397.6564" y1="-793.807" x2="381.9963" y2="-773.1756" gradientTransform="matrix(0.7071 0.7071 -0.7071 0.7071 -836.1876 422.8016)">
			<stop  offset="0" style="stop-color:#F04A2B"/>
			<stop  offset="0.4704" style="stop-color:#B54F6B"/>
			<stop  offset="0.8353" style="stop-color:#8B5191"/>
			<stop  offset="1" style="stop-color:#7851A1"/>
		</linearGradient>
		<path fill="url(#SVGID_4_)" d="M-15.2,151.5c0.4,0.1,0.8,0.1,1.3-0.2l16.7-9.2l-4.3-4.3L-15.2,151.5z"/>
	</g>
</g>
</svg>
