<svg id="Layer_1" xmlns="http://www.w3.org/2000/svg" viewBox="-556 1596 310 310"><style>.st0{fill:#a2a2a2}.st1{fill:#00ace6}</style><path class="st0" d="M-400.8 1623.9h-.3c-97.2 0-144.3 21.8-144.3 66.4 0 0-.3 7.9-.3 8.2 0 23.7 3.4 31.9 41.8 31.9 39 0 42.7-5.4 43.5-30.5v-7.9c0-11.9 7.1-18.9 21.8-21.2l2.5-.3c7.3-.8 12.1-1.4 35.3-1.4 23.2 0 28 .6 35.3 1.4l2.5.3c14.7 2.3 21.8 9.3 21.8 21.2v7.6c.6 25.1 4.5 30.5 43.5 30.5 37 0 41.2-6.5 41.8-32.2v-8.2c-.5-44.1-47.7-65.8-144.9-65.8z"/><path class="st0" d="M-392.3 1705.2l7.9.8c4.8.6 9.3 5.1 9.9 9.9l1.1 8.8c.6 5.6.6 14.7 0 20.1l-.8 7.9c-.6 4.8-5.1 9.3-9.9 10.2l-6.5.8c-5.6.6-14.4.6-20.1 0l-6.5-.8c-4.8-.6-9.3-5.1-9.9-10.2l-1.1-9.3c-.6-5.6-.6-14.7 0-20.1l.8-7.3c.6-4.8 5.1-9.6 10.2-10.2l5.4-.6c5.1-.8 14.1-.8 19.5 0z"/><path class="st1" d="M-298 1737.4c-39.5 0-42.7 5.4-43.5 30.5 0 5.4-.3 2-.3 7.9 0 12.7-8.2 19.2-21.8 21.2-9 1.1-12.1 1.7-37.6 1.7-25.4 0-28.8-.8-37.6-1.7-13.6-2.3-21.8-8.5-21.8-21.2 0-5.6 0-2.5-.3-7.9-.3-25.4-3.7-30.5-43.2-30.5-37.3 0-41 7.1-41.8 31.9 0 8.5.3 1.7.3 7.9.6 39.5 36.2 66.4 144.3 66.4h.6c5.4 0 10.7 0 15.8-.3 15.5 0 24.6 3.1 28.5 4.8l54.8 27.7c11 5.6 16.4.8 11.9-10.7l-7.1-17.8c-5.4-13 10.5-23.2 10.5-23.2 21.2-11.6 29.9-28 30.2-47.2 0-6.2.3.3.3-7.9-.9-24.5-4.9-31.6-42.2-31.6z"/></svg>