<svg version="1" xmlns="http://www.w3.org/2000/svg" width="414.667" height="414.667" viewBox="0 0 311.000000 311.000000"><path d="M143.7 27.6c-.1.1-6.7.5-14.7.8-8 .4-15.7.8-17 1-1.4.3-5.2.7-8.5 1-3.3.4-7.1.8-8.5 1-1.4.2-4.7.8-7.5 1.2-2.7.4-5.4.8-6 1-.5.1-3.2.7-6 1.3-34.2 7.8-55.1 22.5-61.7 43.4-2.4 7.7-3.3 31.8-1.5 39.1 1.5 5.7 5.4 10.8 10.1 13 5.6 2.6 17.7 4.1 32.6 4 21.7-.2 30.1-1.9 35.3-7 4.5-4.5 5.8-9.5 6.3-23.9.5-13.2 1.3-16.7 4.6-20.6 6.6-7.6 16.4-9.3 53.3-9.3 42.5-.1 51.1 1.5 57.8 11.1 2.6 3.7 2.9 4.9 3.3 14.9.6 18 1.6 22.9 5.6 27.1 4.9 5.2 18 7.6 39.4 7.4 28.2-.3 36.8-4.2 39.4-18.1 1.7-8.9 1.4-27.7-.5-35-5.6-21.7-24.7-36.4-58.3-44.9-12.3-3.2-18.5-4.2-32.2-5.6-3.6-.4-7.6-.8-9-1.1-5.3-.8-55.5-2.4-56.3-1.8z"/><path d="M144.3 109.1c-6.9.8-11.5 3.1-13.3 6.4-3.7 6.9-3.3 40.2.6 46.2 3 4.7 10.7 6.6 26.3 6.5 18-.2 23.4-3.2 25.1-13.8 1.6-9.5 1.4-23.5-.6-34.9-.5-3.3-2.9-6.6-5.9-8.3-4.2-2.2-21.7-3.3-32.2-2.1z"/><path d="M36.4 142c-20.1 2.7-24.7 8.5-24.9 31.5-.3 24.2 4.7 35.9 20.5 48.7 8.2 6.5 26.3 14.6 38.9 17.3 10.5 2.3 16.4 3.4 20.4 4 2.7.3 5.7.8 6.6 1 1 .2 5.4.6 9.7 1 4.3.4 9 .9 10.4 1.1 1.4.3 16.7.7 34 .9 23 .2 33.4.7 38.6 1.8 5.4 1.2 14.6 5.3 38.2 17.1 31.1 15.6 36 17.4 39 14.4 2.2-2.2 1.2-8.3-3.4-19.8-5.2-13-5.8-18.1-2.6-23.2 2.8-4.4 6.3-7.5 14.9-13.2 12.7-8.3 20.9-19.9 23.5-33.3 1.4-7.5 1.3-26.7-.2-32.4-3.8-14.2-14-18.1-46-17.4-21.6.4-29.6 2.3-33.7 8.2-3.5 4.8-4.1 8.1-4.9 22.8-.3 6-1 12.5-1.5 14.3-2.8 8.8-10.8 13.3-26.6 14.8-9.8 1-53.5.9-62.8 0-13.9-1.5-22.4-5.7-25.8-12.8-1-2.1-1.8-7.7-2.1-15.8-.7-14.2-1.7-19.2-4.3-22.9-2.2-3-9.2-6.7-14.3-7.6-5.8-1-35.1-1.3-41.6-.5z"/></svg>